PathFileType	4	(x/y/z)	S09_PSF_T03
DataRate	CameraRate	NumFrames	NumMarkers	Units	OrigDataRate	OrigDataStartFrame	OrigNumFrames
240	240	5	51	mm	240	58	461
Frame#	Time	Sternum			R.Acromium			L.Acromium			Top.Head			R.ASIS			L.ASIS			R.PSIS			L.PSIS			R.Great.Tro			L.Great.Tro			R.Iliac.Crest			L.Iliac.Crest			V.Sacral			R.Thigh.Upper.Post			R.Thigh.Lower.Ant			R.Thigh.Lower.Post			R.Thigh.Upper.Ant			R.Knee.Lat			R.Knee.Med			R.Shank.Upper.Post			R.Shank.Lower.Ant			R.Shank.Lower.Post			R.Shank.Upper.Ant			R.Ankle.Lat			R.Ankle.Med			R.Heel.Upper			R.Heel.Med			R.Heel.Lat			R.Toe.Lat			R.Toe.Med			R.Toe.Tip			L.Thigh.Upper.Post			L.Thigh.Lower.Ant			L.Thigh.Lower.Post			L.Thigh.Upper.Ant			L.Knee.Lat			L.Knee.Med			L.Shank.Upper.Post			L.Shank.Lower.Ant			L.Shank.Lower.Post			L.Shank.Upper.Ant			L.Ankle.Lat			L.Ankle.Med			L.Heel.Upper			L.Heel.Med			L.Heel.Lat			L.Toe.Lat			L.Toe.Med			L.Toe.Tip			Cervical.Spine			Back			
		X1	Y1	Z1	X2	Y2	Z2	X3	Y3	Z3	X4	Y4	Z4	X5	Y5	Z5	X6	Y6	Z6	X7	Y7	Z7	X8	Y8	Z8	X9	Y9	Z9	X10	Y10	Z10	X11	Y11	Z11	X12	Y12	Z12	X13	Y13	Z13	X14	Y14	Z14	X15	Y15	Z15	X16	Y16	Z16	X17	Y17	Z17	X18	Y18	Z18	X19	Y19	Z19	X20	Y20	Z20	X21	Y21	Z21	X22	Y22	Z22	X23	Y23	Z23	X24	Y24	Z24	X25	Y25	Z25	X26	Y26	Z26	X27	Y27	Z27	X28	Y28	Z28	X29	Y29	Z29	X30	Y30	Z30	X31	Y31	Z31	X32	Y32	Z32	X33	Y33	Z33	X34	Y34	Z34	X35	Y35	Z35	X36	Y36	Z36	X37	Y37	Z37	X38	Y38	Z38	X39	Y39	Z39	X40	Y40	Z40	X41	Y41	Z41	X42	Y42	Z42	X43	Y43	Z43	X44	Y44	Z44	X45	Y45	Z45	X46	Y46	Z46	X47	Y47	Z47	X48	Y48	Z48	X49	Y49	Z49	X50	Y50	Z50	X51	Y51	Z51	

58	0.2375	NaN	NaN	NaN	-1352.2	1429.3	449.99	-1344.2	1422.1	135.67	-1342.5	1730.4	287.42	NaN	NaN	NaN	NaN	NaN	NaN	-1480.3	1028.4	331.68	-1469.6	1037.6	242.28	-1340.6	909.7	480.82	-1308.3	934.6	95.871	-1336.6	1077.3	454.64	-1354.5	1115	135.44	-1490.4	997.18	278.32	-1323.2	661.52	468.79	-1239.1	563.72	455.77	NaN	NaN	NaN	-1247.2	652.9	470.82	-1267	485.01	449.29	-1253.2	468.73	325.86	-1438.3	432.68	441.08	-1453.4	343.06	439.57	-1502.2	391.76	428.19	-1395.3	387.96	452.67	NaN	NaN	NaN	-1604.3	241.28	328.22	-1677.6	312.51	345.86	NaN	NaN	NaN	NaN	NaN	NaN	-1663	152.94	448.13	-1620.1	106.13	355.56	-1592.7	73.764	404	-1325.2	663.22	149.64	-1224.9	584.35	159.71	-1292.4	580.81	175.55	-1253.8	665.27	130.15	-1228.5	507.1	175.55	-1210.8	528.54	305.23	-1269.6	372.76	169.67	-1182.9	299.75	169.78	-1265	296.92	178.24	-1207.4	362.49	177.32	-1247.8	101.28	211.59	-1228.2	101.04	305.11	-1313.9	69.033	270.67	-1298.4	47.682	301.71	-1313.2	40.602	242.23	-1142.6	43.014	180.3	-1101	48.191	287.65	-1054.1	65.849	225.79	-1428.2	1474.6	302.53	-1471.1	1206.2	292.57
59	0.24167	NaN	NaN	NaN	-1347.1	1430.4	449.57	-1338.4	1423.1	135.22	-1337.2	1731.4	286.93	NaN	NaN	NaN	NaN	NaN	NaN	-1475.4	1029.6	330.71	-1464.6	1039	241.32	-1335.9	910.89	480.04	-1303.7	935.38	95.393	-1329.8	1077.8	453.59	-1349.1	1116	134.79	-1485.6	998.52	277.34	-1314.2	663.13	468.87	-1229.2	566.47	455.71	NaN	NaN	NaN	-1238.6	655.42	470.82	-1256.2	487.17	449.4	-1242.1	470.99	325.76	-1427	433.99	440.93	-1441.4	344.25	439.31	-1490.7	392.8	428.06	-1383.7	389.48	452.43	NaN	NaN	NaN	-1592.1	242.08	327.66	-1666.3	312.4	345.59	NaN	NaN	NaN	NaN	NaN	NaN	-1649.2	153.25	447.98	-1606	106.91	355.27	-1578.5	74.618	403.55	-1322.6	664.21	149.29	-1223	584.56	159.29	-1290.4	581.51	175.13	-1251.2	665.72	129.77	-1227	507.23	175.16	-1209.1	528.59	304.8	-1268.7	372.92	169.27	-1183.9	298.77	170.68	-1264.2	297.14	177.93	-1206.6	362.46	177.02	-1247.7	101.33	211.53	-1228	101.19	305.04	-1313.8	69.152	270.64	-1298.4	47.769	301.71	-1313.2	40.739	242.2	-1142.5	42.936	180.25	-1101	48.166	287.58	-1054	65.67	225.7	-1422.7	1475.8	301.94	-1466	1207.4	291.67
60	0.24583	NaN	NaN	NaN	-1342	1431.5	449.15	-1332.6	1424.2	134.77	-1331.8	1732.5	286.45	NaN	NaN	NaN	NaN	NaN	NaN	-1470.5	1030.9	329.76	-1459.6	1040.3	240.38	-1331.2	912.1	479.27	-1299.1	936.14	94.946	-1322.8	1078.3	452.53	-1343.6	1117	134.16	-1480.7	999.88	276.39	-1305.1	664.8	468.96	-1219.3	569.29	455.59	NaN	NaN	NaN	-1230	658.01	470.76	-1245.4	489.41	449.46	-1231	473.35	325.62	-1415.8	435.22	440.76	-1429.3	345.34	439.04	-1479.3	393.7	427.93	-1372.1	390.97	452.17	NaN	NaN	NaN	-1579.8	242.67	327.11	-1654.9	312.01	345.34	NaN	NaN	NaN	NaN	NaN	NaN	-1635.3	153.3	447.81	-1591.7	107.49	354.97	-1564	75.281	403.07	-1320	665.21	148.98	-1221.2	584.79	158.86	-1288.4	582.22	174.73	-1248.7	666.19	129.39	-1225.5	507.38	174.76	-1207.5	528.67	304.35	-1267.7	373.1	168.85	-1185	297.78	171.6	-1263.5	297.37	177.63	-1205.8	362.44	176.71	-1247.6	101.38	211.46	-1227.8	101.36	304.97	-1313.7	69.297	270.6	-1298.3	47.86	301.71	-1313.1	40.884	242.17	-1142.5	42.855	180.19	-1100.9	48.152	287.51	-1054	65.496	225.6	-1417.3	1477	301.36	-1461	1208.6	290.77
61	0.25	NaN	NaN	NaN	-1336.9	1432.5	448.73	-1326.8	1425.3	134.34	-1326.4	1733.6	285.98	NaN	NaN	NaN	NaN	NaN	NaN	-1465.6	1032.2	328.84	-1454.6	1041.6	239.47	-1326.5	913.33	478.54	-1294.5	936.9	94.524	-1315.7	1078.7	451.46	-1338.2	1118	133.55	-1475.9	1001.3	275.47	-1296.1	666.52	469.08	-1209.4	572.18	455.42	NaN	NaN	NaN	-1221.3	660.65	470.64	-1234.7	491.72	449.46	-1220	475.8	325.44	-1404.6	436.37	440.58	-1417.2	346.32	438.75	-1467.8	394.45	427.8	-1360.5	392.41	451.9	NaN	NaN	NaN	-1567.3	243.03	326.57	-1643.4	311.35	345.11	NaN	NaN	NaN	NaN	NaN	NaN	-1621.2	153.1	447.63	-1577.1	107.86	354.67	-1549.4	75.755	402.57	-1317.5	666.23	148.7	-1219.3	585.03	158.43	-1286.4	582.93	174.35	-1246.2	666.65	129.02	-1224.1	507.55	174.34	-1205.8	528.76	303.91	-1266.8	373.29	168.43	-1186	296.8	172.53	-1262.8	297.59	177.33	-1205	362.44	176.39	-1247.5	101.43	211.38	-1227.7	101.55	304.89	-1313.7	69.467	270.56	-1298.3	47.956	301.7	-1313.1	41.035	242.14	-1142.5	42.771	180.13	-1100.9	48.146	287.43	-1053.9	65.325	225.5	-1411.9	1478.2	300.78	-1455.9	1209.9	289.88
62	0.25417	NaN	NaN	NaN	-1331.8	1433.6	448.31	-1321.1	1426.4	133.91	-1321.1	1734.6	285.53	NaN	NaN	NaN	NaN	NaN	NaN	-1460.7	1033.5	327.94	-1449.7	1043	238.58	-1321.8	914.56	477.84	-1289.9	937.63	94.124	-1308.4	1079.1	450.4	-1332.8	1118.9	132.96	-1471.1	1002.6	274.58	-1287.1	668.29	469.21	-1199.5	575.14	455.2	NaN	NaN	NaN	-1212.8	663.34	470.48	-1224	494.09	449.41	-1209.2	478.33	325.24	-1393.4	437.41	440.4	-1405	347.19	438.45	-1456.3	395.06	427.68	-1348.9	393.8	451.61	NaN	NaN	NaN	-1554.7	243.18	326.03	-1631.9	310.42	344.89	NaN	NaN	NaN	NaN	NaN	NaN	-1606.9	152.65	447.45	-1562.4	108.02	354.37	-1534.6	76.046	402.05	-1315	667.25	148.45	-1217.6	585.28	158	-1284.5	583.66	173.99	-1243.7	667.12	128.65	-1222.8	507.73	173.92	-1204.2	528.86	303.46	-1265.9	373.49	168.02	-1187.1	295.83	173.45	-1262.2	297.82	177.03	-1204.2	362.45	176.06	-1247.4	101.49	211.3	-1227.5	101.75	304.81	-1313.8	69.663	270.5	-1298.3	48.057	301.7	-1313	41.191	242.11	-1142.5	42.687	180.06	-1100.8	48.146	287.35	-1053.8	65.157	225.39	-1406.5	1479.3	300.2	-1450.9	1211.1	288.99
